<svg width="67" height="67" viewBox="0 0 67 67" fill="none" xmlns="http://www.w3.org/2000/svg">
<path d="M66.8364 33.4182C66.8364 42.5749 63.1538 50.8708 57.1205 56.897C53.2027 60.8884 48.188 63.8624 42.6249 65.5059C39.6474 66.3668 36.5916 66.8364 33.379 66.8364C30.4799 66.8364 27.7375 66.4451 25.0735 65.819C20.0588 64.4885 15.4358 62.0624 11.5965 58.7753C4.4662 52.6708 0 43.5924 0 33.4965C0 14.9482 14.9657 0 33.4574 0C51.9491 0 66.8364 14.9482 66.8364 33.4182Z" fill="#DFA9DD"/>
<path d="M57.1959 56.8963C53.2781 60.8877 48.2635 63.8617 42.7003 65.5052C39.7228 66.3661 36.667 66.8357 33.4545 66.8357C30.5553 66.8357 27.8129 66.4444 25.1489 65.8183C20.1342 64.4878 15.5112 62.0617 11.6719 58.7746L13.9442 46.4874C14.4926 43.4351 16.8433 41.0873 19.8991 40.5394L26.3242 39.3655L29.7718 38.7394L33.3761 38.1133L38.2341 39.1307L40.7414 39.6785L49.5171 41.4786C52.4163 42.1047 54.7669 44.3743 55.3154 47.3483L57.1959 56.8963Z" fill="#5E57B0"/>
<path d="M42.6999 65.5051C39.7224 66.366 36.6666 66.8356 33.454 66.8356C30.5549 66.8356 27.8125 66.4443 25.1484 65.8182L26.3238 39.4436L29.7714 38.8175L33.3757 38.1914L38.2336 39.2088L40.741 39.7567L42.6999 65.5051Z" fill="white"/>
<path d="M25.7774 24.104C25.7774 24.104 23.3485 16.2777 26.3259 16.1212C26.3259 16.1212 27.1095 12.2081 30.9489 12.2863C34.7882 12.3646 40.8999 14.0864 42.3886 15.6516C43.8774 17.2169 43.0154 23.6344 43.0154 23.6344L32.8294 26.6084L25.7774 24.104Z" fill="#41180F"/>
<path d="M30.4002 29.8164L29.695 40.2254C29.6166 41.008 30.1651 41.7123 30.8703 41.9471C31.8105 42.1819 33.0642 42.4167 34.4746 42.3384C35.4932 42.2602 36.4335 42.1037 37.1386 41.9471C37.9222 41.7123 38.3923 41.008 38.3923 40.2254L37.6088 29.8164H30.4002Z" fill="#943E29"/>
<path d="M30.3998 29.8165L29.9297 35.9993C31.5751 36.7819 34.7877 37.7993 38.0002 35.3732L37.6868 30.6774C37.1383 30.3644 36.5898 30.0513 35.963 29.7383H30.3998V29.8165Z" fill="#5A281D"/>
<path d="M26.9508 19.0977C26.9508 19.0977 25.3054 26.5326 27.5776 31.4632C29.8499 36.3155 33.9243 36.1589 35.178 36.0807C36.3533 36.0024 43.9537 35.1415 41.6815 19.4107C41.6815 19.4107 29.9283 24.263 26.9508 19.0977Z" fill="#943E29"/>
<path d="M27.3083 27.6217C28.2989 27.0888 28.5529 25.6388 27.8758 24.383C27.1986 23.1272 25.8466 22.5412 24.8561 23.0742C23.8655 23.6071 23.6115 25.0571 24.2886 26.3128C24.9658 27.5686 26.3178 28.1546 27.3083 27.6217Z" fill="#943E29"/>
<path d="M44.6414 26.324C45.3186 25.0682 45.0645 23.6182 44.074 23.0853C43.0834 22.5524 41.7314 23.1384 41.0543 24.3942C40.3771 25.6499 40.6311 27.1 41.6217 27.6329C42.6123 28.1658 43.9642 27.5798 44.6414 26.324Z" fill="#943E29"/>
</svg>
