<svg width="182" height="102" viewBox="0 0 182 102" fill="none" xmlns="http://www.w3.org/2000/svg">
<path d="M75.2031 85.4502V71.0801L79.9932 69.1641L84.5437 70.8406V73.7146H93.6448V82.8157H84.5437C84.5437 83.614 84.4479 85.4023 84.0647 86.1687C83.6815 86.9351 82.947 87.2864 82.6277 87.3662H76.6401C75.8737 87.3662 75.3628 86.0889 75.2031 85.4502Z" fill="white"/>
<path d="M8.38258 101.972V59.58H25.3873V94.5474L8.38258 101.972Z" fill="white"/>
<path d="M25.3873 39.7013H2.15552C1.99585 39.7013 1.53282 39.7971 0.958009 40.1803C0.383204 40.5635 0.0798341 41.298 0 41.6173V55.5085C0 56.6581 1.11768 57.1052 1.67652 57.185H25.3873L33.5303 48.3234L25.3873 39.7013Z" fill="white"/>
<path d="M25.3873 37.3063H8.38258V8.08703C8.38258 7.12902 8.81369 4.82978 11.4961 2.33895C14.1785 -0.151871 18.1223 -0.215738 19.6392 0.183433L53.888 14.5536V82.8118L42.6314 87.1228V28.9237L25.3873 25.0917V37.3063Z" fill="white"/>
<path d="M75.4433 26.0497V17.1881C75.5231 16.8688 75.8265 16.1343 76.4013 15.7511C76.9761 15.3679 77.5988 15.2721 77.8383 15.2721H81.6703C81.9098 15.2721 82.5325 15.3679 83.1073 15.7511C83.6821 16.1343 84.1452 16.8688 84.3048 17.1881V26.0497L79.7543 27.7262L75.4433 26.0497Z" fill="white"/>
<path fill-rule="evenodd" clip-rule="evenodd" d="M56.7621 81.3747V15.7511L73.2877 22.2176V27.9657L80.2333 30.1212L86.6999 27.9657L103.226 34.4323V62.454L86.6999 69.1601L80.2333 66.7651L73.2877 69.1601V74.6687L56.7621 81.3747ZM65.6236 33.7138V63.4121L75.4433 61.2565V35.6298L65.6236 33.7138ZM84.5443 59.58V37.5458L94.1244 39.4618V57.4245L84.5443 59.58Z" fill="white"/>
<path d="M133.709 73.0602C133.572 73.2108 133.385 73.3274 133.147 73.41C132.914 73.4877 132.698 73.5265 132.499 73.5265C132.159 73.5265 131.836 73.4391 131.53 73.2642C131.224 73.0894 131.044 72.8173 130.991 72.4481L130.036 72.5137C129.988 73.1258 129.864 73.682 129.665 74.1823C129.47 74.6827 129.169 75.081 128.761 75.3773C128.353 75.6736 127.806 75.8218 127.122 75.8218C127.107 75.8218 127.095 75.8169 127.085 75.8072H125.263C125.137 75.8072 125.008 75.8194 124.877 75.8436C124.751 75.8631 124.625 75.8922 124.498 75.9311C124.265 75.9991 124.01 76.0695 123.733 76.1424C123.456 76.2104 123.189 76.2687 122.932 76.3173C122.679 76.3658 122.465 76.3901 122.291 76.3901C121.897 76.3901 121.586 76.2881 121.358 76.0841C121.134 75.8801 120.974 75.6226 120.877 75.3117C120.785 74.996 120.739 74.6705 120.739 74.3353C120.739 72.8683 121.11 71.6855 121.853 70.7868C122.601 69.8833 123.724 69.3878 125.22 69.3004C125.477 69.2858 125.737 69.2761 125.999 69.2712C126.262 69.2664 126.524 69.2567 126.786 69.2421L126.918 69.5554C127.165 69.4437 127.406 69.349 127.639 69.2712C127.877 69.1935 128.134 69.1547 128.411 69.1547C128.819 69.1547 129.135 69.2445 129.358 69.4243C129.587 69.5991 129.75 69.8299 129.847 70.1165C129.949 70.3982 130.009 70.7042 130.029 71.0346C130.053 71.36 130.065 71.6733 130.065 71.9745L130.991 71.9162C131.141 71.5616 131.391 71.326 131.741 71.2094C132.091 71.0929 132.438 71.0346 132.783 71.0346C132.895 71.0346 133.014 71.0443 133.14 71.0637C133.266 71.0783 133.381 71.1123 133.483 71.1657C133.395 71.3309 133.337 71.4766 133.308 71.6029C133.279 71.7244 133.264 71.8774 133.264 72.062C133.264 72.164 133.274 72.2903 133.293 72.4409C133.313 72.5866 133.354 72.7202 133.417 72.8416C133.48 72.9631 133.577 73.0359 133.709 73.0602ZM128.098 71.5738C128.098 71.3552 128.076 71.1244 128.032 70.8816C127.993 70.6338 127.906 70.4249 127.77 70.2549C127.639 70.08 127.43 69.9926 127.143 69.9926C127.056 69.9926 126.995 69.9999 126.961 70.0145C126.932 70.0242 126.879 70.0363 126.801 70.0509L126.233 73.9783C126.223 74.056 126.213 74.1483 126.203 74.2552C126.194 74.3621 126.189 74.4568 126.189 74.5394C126.189 74.7337 126.259 74.8964 126.4 75.0276C126.546 75.1587 126.713 75.2243 126.903 75.2243C127.131 75.2243 127.318 75.1223 127.464 74.9183C127.615 74.7094 127.731 74.4471 127.814 74.1313C127.901 73.8156 127.964 73.4853 128.003 73.1404C128.042 72.7955 128.066 72.4821 128.076 72.2004C128.091 71.9138 128.098 71.7049 128.098 71.5738ZM124.826 69.978C124.768 69.9537 124.712 69.9416 124.659 69.9416C124.435 69.9416 124.178 70.1213 123.886 70.4808C123.6 70.8354 123.35 71.3333 123.136 71.9745C122.922 72.6157 122.815 73.3662 122.815 74.226C122.815 74.7312 122.881 75.0907 123.012 75.3044C123.148 75.5133 123.335 75.6178 123.573 75.6178C123.792 75.6178 123.942 75.5158 124.025 75.3117C124.112 75.1077 124.166 74.9207 124.185 74.7507L124.826 69.978ZM141.716 77.6434L140.164 77.8693C140.072 77.8839 139.98 77.8912 139.887 77.8912C139.62 77.8912 139.453 77.8159 139.385 77.6653C139.317 77.5098 139.283 77.3179 139.283 77.0896C139.283 76.4484 139.305 75.8072 139.348 75.166C139.392 74.5248 139.414 73.8836 139.414 73.2424C139.414 73.0238 139.399 72.7688 139.37 72.4773C139.346 72.181 139.29 71.8919 139.203 71.6102C139.12 71.3285 138.989 71.0953 138.809 70.9107C138.634 70.7261 138.394 70.6338 138.088 70.6338C137.777 70.6338 137.531 70.7237 137.352 70.9034C137.172 71.0831 137.038 71.3115 136.951 71.5883C136.864 71.8604 136.808 72.1421 136.783 72.4336C136.759 72.725 136.747 72.9849 136.747 73.2132C136.747 73.3201 136.747 73.4755 136.747 73.6796C136.747 73.8836 136.759 74.0852 136.783 74.2843C136.808 74.4786 136.856 74.6195 136.929 74.707C136.973 74.7555 137.026 74.7944 137.089 74.8235C137.153 74.8478 137.216 74.8721 137.279 74.8964V75.0931L135.756 75.3627C135.707 75.3676 135.659 75.3749 135.61 75.3846C135.562 75.3895 135.511 75.3919 135.457 75.3919C135.268 75.3919 135.125 75.3312 135.027 75.2097C134.93 75.0883 134.865 74.9377 134.831 74.758C134.797 74.5734 134.777 74.3888 134.772 74.2042C134.772 74.0196 134.772 73.8642 134.772 73.7379C134.772 73.3055 134.801 72.9315 134.86 72.6157C134.923 72.3 135.083 71.9672 135.341 71.6175C135.584 71.292 135.87 71.02 136.2 70.8014C136.536 70.5779 136.895 70.4079 137.279 70.2913V68.8705C137.279 68.8025 137.259 68.715 137.221 68.6082C137.182 68.4964 137.111 68.4454 137.009 68.4552L136.98 68.273L138.671 67.9888C138.753 67.9742 138.831 67.967 138.904 67.967C139.074 67.967 139.183 68.0058 139.232 68.0835C139.285 68.1613 139.312 68.2754 139.312 68.426V70.0655C139.89 70.1043 140.322 70.2476 140.609 70.4954C140.895 70.7431 141.085 71.0686 141.177 71.4718C141.274 71.8701 141.323 72.3218 141.323 72.827C141.323 73.4343 141.306 74.0439 141.272 74.656C141.238 75.2632 141.221 75.8704 141.221 76.4776C141.221 76.7107 141.238 76.9026 141.272 77.0532C141.311 77.2038 141.459 77.3204 141.716 77.403V77.6434ZM149.2 75.8655C149.2 76.2736 149.093 76.6112 148.879 76.8783C148.67 77.1455 148.398 77.3447 148.063 77.4758C147.733 77.607 147.38 77.6726 147.006 77.6726C146.593 77.6726 146.176 77.692 145.753 77.7308C145.33 77.7697 144.913 77.8159 144.5 77.8693C144.383 77.8839 144.267 77.8912 144.15 77.8912C143.844 77.8912 143.579 77.828 143.356 77.7017C143.132 77.5754 143.021 77.3422 143.021 77.0022C143.021 76.9196 143.05 76.8128 143.108 76.6816C143.171 76.5456 143.222 76.4387 143.261 76.361C143.674 75.5643 144.075 74.7968 144.463 74.0585C144.852 73.3201 145.243 72.5696 145.636 71.8069L144.303 71.9745C144.225 71.9842 144.148 71.994 144.07 72.0037C143.992 72.0134 143.914 72.0182 143.837 72.0182C143.487 72.0182 143.319 71.8555 143.334 71.53L143.429 69.1765C143.429 69.1328 143.421 69.0842 143.407 69.0308C143.397 68.9774 143.363 68.9482 143.305 68.9433V68.7685L144.726 68.5717C144.813 68.562 144.881 68.5572 144.93 68.5572C145.362 68.5572 145.578 68.7782 145.578 69.2202C145.578 69.3077 145.568 69.4753 145.549 69.723C145.53 69.9707 145.508 70.2428 145.483 70.5391C145.464 70.8305 145.445 71.0953 145.425 71.3333C145.624 71.309 145.824 71.2847 146.023 71.2604C146.227 71.2313 146.428 71.2046 146.627 71.1803C146.744 71.1657 146.88 71.1512 147.035 71.1366C147.196 71.1171 147.32 71.1074 147.407 71.1074C147.621 71.1074 147.767 71.1293 147.844 71.173C147.922 71.2119 147.961 71.3139 147.961 71.479C147.961 71.5519 147.907 71.7025 147.801 71.9308C147.694 72.1591 147.558 72.4287 147.393 72.7396C147.232 73.0456 147.065 73.3565 146.89 73.6723C146.72 73.9832 146.564 74.2625 146.423 74.5102C146.287 74.758 146.193 74.9328 146.139 75.0348C146.499 75.0106 146.882 74.9838 147.291 74.9547C147.703 74.9256 148.036 74.911 148.289 74.911C148.59 74.911 148.816 74.9984 148.966 75.1733C149.122 75.3433 149.2 75.574 149.2 75.8655ZM147.108 76.1497C147.108 75.9311 147.023 75.7684 146.853 75.6615C146.683 75.5498 146.501 75.4939 146.307 75.4939C146.234 75.4939 146.161 75.4963 146.088 75.5012C146.015 75.506 145.943 75.5085 145.87 75.5085C145.85 75.5425 145.807 75.6226 145.738 75.7489C145.67 75.8752 145.595 76.0161 145.513 76.1715C145.435 76.3221 145.364 76.4581 145.301 76.5796C145.243 76.701 145.214 76.7763 145.214 76.8055C145.214 76.9852 145.289 77.0994 145.44 77.1479C145.59 77.1916 145.734 77.2135 145.87 77.2135C146.185 77.2135 146.47 77.1236 146.722 76.9439C146.98 76.7593 147.108 76.4946 147.108 76.1497ZM164.232 77.6434L162.68 77.8693C162.587 77.8839 162.495 77.8912 162.403 77.8912C162.136 77.8912 161.968 77.8159 161.9 77.6653C161.832 77.5098 161.798 77.3179 161.798 77.0896C161.798 76.4484 161.82 75.8072 161.863 75.166C161.907 74.5248 161.929 73.8836 161.929 73.2424C161.929 73.0238 161.914 72.7688 161.885 72.4773C161.861 72.181 161.805 71.8919 161.718 71.6102C161.635 71.3285 161.504 71.0953 161.324 70.9107C161.149 70.7261 160.909 70.6338 160.603 70.6338C160.467 70.6338 160.336 70.6508 160.209 70.6848C160.083 70.7188 159.969 70.7844 159.867 70.8816C159.687 71.0516 159.549 71.3187 159.452 71.6831C159.355 72.0425 159.289 72.4384 159.255 72.8708C159.221 73.3031 159.201 73.7136 159.197 74.1022C159.192 74.4908 159.189 74.7968 159.189 75.0203C159.189 75.1271 159.187 75.2826 159.182 75.4866C159.182 75.6858 159.184 75.9019 159.189 76.1351C159.199 76.3634 159.216 76.5772 159.24 76.7763C159.265 76.9706 159.301 77.1139 159.35 77.2062C159.389 77.2694 159.437 77.3204 159.495 77.3592C159.559 77.3981 159.624 77.4297 159.692 77.454V77.6434L158.184 77.8693C158.135 77.8741 158.082 77.8814 158.024 77.8912C157.97 77.9009 157.917 77.9057 157.863 77.9057C157.732 77.9057 157.628 77.8693 157.55 77.7964C157.458 77.7138 157.387 77.573 157.339 77.3738C157.295 77.1746 157.263 76.9536 157.244 76.7107C157.229 76.4679 157.22 76.2395 157.215 76.0258C157.215 75.8121 157.215 75.6493 157.215 75.5376C157.215 75.1441 157.22 74.7094 157.229 74.2333C157.244 73.7524 157.295 73.2812 157.382 72.8198C157.47 72.3583 157.628 71.9575 157.856 71.6175C158.079 71.2775 158.364 71.0006 158.708 70.7868C159.053 70.5682 159.418 70.4031 159.801 70.2913V68.8705C159.801 68.8025 159.782 68.715 159.743 68.6082C159.704 68.4964 159.634 68.4454 159.532 68.4552L159.503 68.273L161.186 67.9888C161.268 67.9742 161.346 67.967 161.419 67.967C161.589 67.967 161.698 68.0058 161.747 68.0835C161.8 68.1613 161.827 68.2754 161.827 68.426V70.0655C162.405 70.1043 162.837 70.2476 163.124 70.4954C163.411 70.7431 163.603 71.0686 163.7 71.4718C163.797 71.8701 163.845 72.3218 163.845 72.827C163.845 73.4343 163.826 74.0439 163.787 74.656C163.753 75.2632 163.736 75.8704 163.736 76.4776C163.736 76.7107 163.753 76.9026 163.787 77.0532C163.826 77.2038 163.974 77.3204 164.232 77.403V77.6434ZM181.311 78.8238C181.156 78.9355 180.976 79.0181 180.772 79.0716C180.568 79.125 180.371 79.1517 180.182 79.1517C179.745 79.1517 179.431 79.0036 179.242 78.7072C179.057 78.4158 178.958 78.0709 178.943 77.6726C178.72 77.7017 178.467 77.7333 178.185 77.7673C177.908 77.8013 177.651 77.8329 177.413 77.862C177.175 77.8863 177.002 77.8984 176.896 77.8984C176.609 77.8984 176.424 77.8256 176.342 77.6798C176.264 77.5293 176.225 77.3277 176.225 77.0751C176.225 76.8468 176.232 76.5602 176.247 76.2153C176.262 75.8655 176.279 75.4988 176.298 75.115C176.322 74.7264 176.342 74.3572 176.356 74.0075C176.371 73.6577 176.378 73.3687 176.378 73.1404C176.378 72.606 176.32 72.1615 176.203 71.8069C176.087 71.4475 175.873 71.1803 175.562 71.0054C175.256 70.8257 174.819 70.7358 174.251 70.7358C173.876 70.7358 173.563 70.7528 173.311 70.7868C173.058 70.8208 172.929 70.8791 172.924 70.9617L172.735 75.0494C172.861 75.0494 172.988 75.0494 173.114 75.0494C173.245 75.0446 173.374 75.0324 173.5 75.013C173.636 74.9936 173.77 74.9717 173.901 74.9474C174.032 74.9231 174.166 74.911 174.302 74.911C174.642 74.911 174.911 75.0324 175.11 75.2753C175.314 75.5133 175.416 75.7951 175.416 76.1205C175.416 76.6257 175.268 77.0022 174.972 77.2499C174.68 77.4928 174.292 77.6143 173.806 77.6143H172.939C172.691 77.6143 172.436 77.6628 172.174 77.76C171.916 77.8523 171.644 77.8984 171.358 77.8984C171.12 77.8984 170.957 77.8693 170.87 77.811C170.787 77.7527 170.746 77.5997 170.746 77.352C170.746 77.2985 170.753 77.1261 170.768 76.8346C170.782 76.5383 170.799 76.174 170.819 75.7416C170.843 75.3044 170.867 74.843 170.891 74.3572C170.921 73.8714 170.945 73.4075 170.964 72.9655C170.989 72.5186 171.008 72.1397 171.023 71.8288C171.037 71.513 171.044 71.3139 171.044 71.2313C171.044 71.1487 171.001 71.0953 170.913 71.071C170.826 71.0467 170.712 71.0346 170.571 71.0346C170.022 71.0346 169.56 71.1487 169.186 71.377C168.817 71.6005 168.518 71.9017 168.29 72.2806C168.067 72.6595 167.904 73.0796 167.802 73.5411C167.7 73.9977 167.647 74.4592 167.642 74.9256C167.904 74.9207 168.161 74.8915 168.414 74.8381C168.667 74.7798 168.922 74.7507 169.179 74.7507C169.524 74.7507 169.786 74.8867 169.966 75.1587C170.151 75.4307 170.243 75.7222 170.243 76.0331C170.243 76.4266 170.168 76.7302 170.017 76.9439C169.866 77.1528 169.667 77.3009 169.42 77.3884C169.172 77.4758 168.9 77.5293 168.603 77.5487C168.307 77.5681 168.011 77.5851 167.715 77.5997C167.603 77.6045 167.491 77.624 167.379 77.658C167.272 77.692 167.163 77.7236 167.051 77.7527C166.901 77.7964 166.748 77.8329 166.592 77.862C166.442 77.8863 166.289 77.8984 166.133 77.8984C165.866 77.8984 165.689 77.8329 165.601 77.7017C165.519 77.5705 165.478 77.3787 165.478 77.1261C165.478 76.5189 165.509 75.8874 165.572 75.2316C165.64 74.5709 165.791 73.9419 166.024 73.3444C166.257 72.7469 166.624 72.2393 167.124 71.8215C167.552 71.4669 168.069 71.1706 168.676 70.9326C169.284 70.6945 169.859 70.5342 170.403 70.4516C170.792 70.3934 171.178 70.3326 171.562 70.2695C171.95 70.2015 172.341 70.1578 172.735 70.1383L173.012 70.2695C173.279 70.2355 173.549 70.2088 173.821 70.1893C174.093 70.165 174.362 70.1529 174.629 70.1529C175.747 70.1529 176.619 70.4541 177.245 71.0564C177.877 71.6588 178.193 72.5307 178.193 73.6723C178.193 74.2649 178.183 74.8575 178.163 75.4502C178.149 76.0428 178.134 76.6354 178.12 77.2281L181.122 76.8856C181.068 77.0216 181.027 77.1746 180.998 77.3447C180.969 77.5147 180.954 77.6701 180.954 77.811C180.954 77.9616 180.981 78.1437 181.034 78.3575C181.088 78.5712 181.18 78.7267 181.311 78.8238ZM173.719 76.2444C173.719 76.0404 173.68 75.8509 173.602 75.6761C173.529 75.4963 173.369 75.4065 173.121 75.4065C173.048 75.4065 172.975 75.4162 172.903 75.4356C172.835 75.455 172.767 75.4793 172.698 75.5085C172.689 75.6736 172.679 75.8388 172.669 76.004C172.66 76.1643 172.655 76.327 172.655 76.4921C172.655 76.7885 172.684 76.9682 172.742 77.0313C172.801 77.0945 172.922 77.1261 173.107 77.1261C173.364 77.1261 173.529 77.0338 173.602 76.8492C173.68 76.6597 173.719 76.4581 173.719 76.2444ZM168.611 76.2298C168.611 76.0258 168.574 75.8388 168.501 75.6688C168.433 75.4939 168.276 75.4065 168.028 75.4065C167.96 75.4065 167.889 75.4186 167.817 75.4429C167.744 75.4623 167.676 75.4842 167.613 75.5085C167.593 75.6688 167.579 75.8315 167.569 75.9967C167.559 76.1618 167.554 76.327 167.554 76.4921C167.554 76.6816 167.576 76.8346 167.62 76.9512C167.668 77.0678 167.8 77.1261 168.013 77.1261C168.256 77.1261 168.416 77.0265 168.494 76.8273C168.572 76.6233 168.611 76.4241 168.611 76.2298Z" fill="white"/>
<path d="M129.482 50.4642C129.482 50.8771 129.375 51.222 129.162 51.4988C128.953 51.7709 128.669 51.9895 128.309 52.1546C127.955 52.3198 127.554 52.4461 127.107 52.5335C126.66 52.621 126.203 52.6865 125.737 52.7303L125.387 54.7632C125.368 54.8603 125.353 54.9624 125.344 55.0692C125.339 55.1761 125.336 55.2708 125.336 55.3534C125.336 55.5768 125.365 55.7371 125.424 55.8343C125.482 55.9266 125.577 55.9873 125.708 56.0165V56.2351L124.375 56.4099C124.297 56.4196 124.217 56.4318 124.134 56.4464C124.051 56.4561 123.969 56.4609 123.886 56.4609C123.614 56.4609 123.437 56.4002 123.354 56.2788C123.272 56.1573 123.231 55.9655 123.231 55.7031C123.231 55.5914 123.24 55.4724 123.26 55.3461C123.279 55.2149 123.299 55.0959 123.318 54.9891L123.697 52.9124C123.444 52.9416 123.167 52.9707 122.866 52.9999C122.565 53.029 122.325 53.0436 122.145 53.0436C121.858 53.0436 121.591 53.0096 121.343 52.9416C121.096 52.8687 120.896 52.74 120.746 52.5554C120.595 52.3708 120.52 52.1109 120.52 51.7757C120.52 51.2657 120.639 50.8528 120.877 50.537C121.12 50.2164 121.433 49.9711 121.817 49.8011C122.206 49.6262 122.621 49.5023 123.063 49.4295C123.505 49.3518 123.925 49.3032 124.324 49.2837C124.372 49.0263 124.418 48.7421 124.462 48.4312C124.506 48.1155 124.528 47.8775 124.528 47.7172C124.528 47.5374 124.491 47.3844 124.418 47.2581C124.345 47.1269 124.219 47.0371 124.039 46.9885V46.8209L125.307 46.6679C125.409 46.6582 125.516 46.646 125.628 46.6315C125.74 46.6169 125.837 46.6096 125.919 46.6096C126.177 46.6096 126.354 46.6728 126.451 46.7991C126.553 46.9205 126.604 47.1027 126.604 47.3455C126.604 47.5447 126.577 47.8167 126.524 48.1616C126.471 48.5065 126.417 48.8198 126.364 49.1016C126.879 49.0336 127.377 48.9996 127.857 48.9996C128.329 48.9996 128.717 49.1186 129.023 49.3566C129.329 49.5898 129.482 49.959 129.482 50.4642ZM124.214 49.8667C123.709 49.8715 123.316 49.9857 123.034 50.2091C122.757 50.4326 122.618 50.8115 122.618 51.3458C122.618 51.6373 122.677 51.8826 122.793 52.0818C122.91 52.2761 123.131 52.3732 123.456 52.3732C123.578 52.3732 123.687 52.3635 123.784 52.3441L124.214 49.8667ZM127.318 50.6828C127.318 50.4496 127.265 50.2237 127.158 50.0051C127.051 49.7817 126.857 49.6699 126.575 49.6699H126.276L125.846 52.1765C125.914 52.1862 125.963 52.1911 125.992 52.1911C126.254 52.1911 126.485 52.1158 126.684 51.9652C126.884 51.8146 127.039 51.6251 127.151 51.3968C127.262 51.1637 127.318 50.9256 127.318 50.6828ZM141.024 49.7137C141.024 49.9177 140.993 50.2213 140.929 50.6245C140.871 51.0276 140.798 51.4721 140.711 51.9579C140.623 52.4437 140.534 52.9221 140.441 53.3933C140.354 53.8645 140.278 54.2774 140.215 54.632C140.157 54.9818 140.128 55.2174 140.128 55.3388C140.128 55.4943 140.172 55.6497 140.259 55.8052C140.346 55.9557 140.473 56.0505 140.638 56.0893V56.3298C140.356 56.3541 140.05 56.3832 139.72 56.4172C139.394 56.4512 139.13 56.4682 138.926 56.4682C138.644 56.4682 138.428 56.4051 138.277 56.2788C138.127 56.1525 138.051 55.9436 138.051 55.6521C138.051 55.521 138.08 55.2635 138.139 54.8798C138.202 54.496 138.277 54.0491 138.365 53.5391C138.457 53.029 138.547 52.5141 138.634 51.9943C138.722 51.4697 138.794 50.9985 138.853 50.5807C138.916 50.1581 138.947 49.8497 138.947 49.6554C138.947 49.1502 138.831 48.764 138.598 48.4968C138.369 48.2248 137.978 48.0888 137.425 48.0888L136.783 51.8632C136.754 52.0138 136.74 52.1741 136.74 52.3441C136.74 52.4655 136.757 52.5797 136.791 52.6865C136.83 52.7885 136.917 52.8517 137.053 52.876V53.0727L135.632 53.2549C135.574 53.2597 135.516 53.267 135.457 53.2767C135.399 53.2816 135.341 53.284 135.282 53.284C135.093 53.284 134.95 53.2452 134.852 53.1674C134.755 53.0897 134.707 52.9513 134.707 52.7521C134.707 52.6647 134.714 52.5772 134.729 52.4898L135.37 48.1179C135.176 48.1519 134.989 48.2126 134.809 48.3001C134.629 48.3827 134.461 48.4822 134.306 48.5988C133.781 48.9971 133.412 49.5048 133.198 50.1217C132.985 50.7386 132.878 51.3653 132.878 52.0016C132.878 52.1959 132.905 52.3756 132.958 52.5408C133.011 52.706 133.143 52.8177 133.351 52.876V53.0727L131.501 53.2695C131.467 53.2743 131.433 53.2767 131.399 53.2767C131.365 53.2767 131.331 53.2767 131.297 53.2767C131.025 53.2767 130.838 53.2112 130.736 53.08C130.638 52.9489 130.59 52.757 130.59 52.5044C130.59 51.4405 130.884 50.5054 131.472 49.6991C132.059 48.8878 132.849 48.3001 133.84 47.9357C134.097 47.8386 134.357 47.7633 134.619 47.7099C134.886 47.6564 135.156 47.6127 135.428 47.5787C135.744 47.5399 136.06 47.5058 136.375 47.4767C136.691 47.4476 137.007 47.4233 137.323 47.4038L137.519 47.6151C137.762 47.552 138 47.501 138.233 47.4621C138.471 47.4233 138.714 47.4038 138.962 47.4038C139.7 47.4038 140.227 47.6127 140.543 48.0305C140.864 48.4482 141.024 49.0093 141.024 49.7137ZM149.389 53.6411C149.389 54.1997 149.248 54.6053 148.966 54.8579C148.69 55.1057 148.311 55.317 147.83 55.4918C147.611 55.5696 147.39 55.6449 147.167 55.7177C146.948 55.7857 146.727 55.8537 146.504 55.9217C146.154 56.0286 145.751 56.1452 145.294 56.2715C144.842 56.3978 144.434 56.4609 144.07 56.4609C143.526 56.4609 143.064 56.3055 142.685 55.9946C142.307 55.6789 142.117 55.2368 142.117 54.6685C142.117 54.2118 142.229 53.7795 142.452 53.3715C142.676 52.9634 142.962 52.5772 143.312 52.2129C143.667 51.8486 144.041 51.5013 144.434 51.1709C144.833 50.8358 145.207 50.5176 145.556 50.2164C145.911 49.9104 146.2 49.6141 146.423 49.3275C146.647 49.0409 146.759 48.7616 146.759 48.4895C146.759 48.3778 146.72 48.2758 146.642 48.1835C146.564 48.0912 146.47 48.0353 146.358 48.0159V47.79L147.895 47.4767C147.992 47.4573 148.082 47.4427 148.165 47.433C148.252 47.4233 148.347 47.4184 148.449 47.4184C148.609 47.4184 148.724 47.484 148.792 47.6151C148.86 47.7463 148.894 47.8799 148.894 48.0159C148.894 48.4385 148.784 48.8271 148.566 49.1817C148.352 49.5315 148.075 49.8667 147.735 50.1873C147.395 50.5079 147.033 50.8261 146.649 51.1418C146.266 51.4576 145.904 51.7879 145.564 52.1328C145.224 52.4777 144.944 52.8517 144.726 53.2549C144.512 53.6532 144.405 54.1001 144.405 54.5956C144.405 54.9891 144.512 55.2514 144.726 55.3825C144.939 55.5137 145.224 55.5793 145.578 55.5793C146.049 55.5793 146.448 55.4263 146.773 55.1202C147.104 54.8093 147.269 54.4159 147.269 53.9398C147.269 53.8281 147.24 53.7261 147.181 53.6338C147.128 53.5366 147.038 53.4832 146.912 53.4735V53.284C147.257 53.1237 147.592 52.9853 147.917 52.8687C148.247 52.7473 148.488 52.6865 148.639 52.6865C148.94 52.6865 149.139 52.7813 149.236 52.9707C149.338 53.1553 149.389 53.3788 149.389 53.6411Z" fill="white"/>
<path d="M127.755 34.7723L126.203 34.9982C126.111 35.0128 126.019 35.0201 125.927 35.0201C125.659 35.0201 125.492 34.9448 125.424 34.7942C125.356 34.6387 125.322 34.4469 125.322 34.2185C125.322 33.5773 125.344 32.9361 125.387 32.2949C125.431 31.6537 125.453 31.0125 125.453 30.3713C125.453 30.1527 125.438 29.8977 125.409 29.6062C125.385 29.3099 125.329 29.0209 125.242 28.7391C125.159 28.4574 125.028 28.2242 124.848 28.0396C124.673 27.855 124.433 27.7627 124.127 27.7627C123.991 27.7627 123.86 27.7797 123.733 27.8137C123.607 27.8477 123.493 27.9133 123.391 28.0105C123.211 28.1805 123.073 28.4476 122.976 28.812C122.878 29.1714 122.813 29.5673 122.779 29.9997C122.745 30.432 122.725 30.8425 122.72 31.2311C122.716 31.6197 122.713 31.9257 122.713 32.1492C122.713 32.2561 122.711 32.4115 122.706 32.6155C122.706 32.8147 122.708 33.0308 122.713 33.264C122.723 33.4923 122.74 33.7061 122.764 33.9052C122.788 34.0995 122.825 34.2428 122.874 34.3351C122.912 34.3983 122.961 34.4493 123.019 34.4881C123.082 34.527 123.148 34.5586 123.216 34.5829V34.7723L121.708 34.9982C121.659 35.0031 121.606 35.0103 121.547 35.0201C121.494 35.0298 121.44 35.0346 121.387 35.0346C121.256 35.0346 121.151 34.9982 121.074 34.9253C120.981 34.8428 120.911 34.7019 120.862 34.5027C120.819 34.3036 120.787 34.0825 120.768 33.8396C120.753 33.5968 120.743 33.3685 120.739 33.1547C120.739 32.941 120.739 32.7782 120.739 32.6665C120.739 32.2731 120.743 31.8383 120.753 31.3622C120.768 30.8813 120.819 30.4101 120.906 29.9487C120.994 29.4872 121.151 29.0864 121.38 28.7464C121.603 28.4064 121.887 28.1295 122.232 27.9157C122.577 27.6971 122.942 27.532 123.325 27.4203V25.9994C123.325 25.9314 123.306 25.8439 123.267 25.7371C123.228 25.6253 123.158 25.5743 123.056 25.5841L123.027 25.4019L124.71 25.1177C124.792 25.1032 124.87 25.0959 124.943 25.0959C125.113 25.0959 125.222 25.1347 125.271 25.2124C125.324 25.2902 125.351 25.4043 125.351 25.5549V27.1944C125.929 27.2332 126.361 27.3765 126.648 27.6243C126.935 27.872 127.126 28.1975 127.224 28.6007C127.321 28.999 127.369 29.4508 127.369 29.9559C127.369 30.5632 127.35 31.1728 127.311 31.7849C127.277 32.3921 127.26 32.9993 127.26 33.6065C127.26 33.8396 127.277 34.0315 127.311 34.1821C127.35 34.3327 127.498 34.4493 127.755 34.5319V34.7723ZM138.984 32.6519C138.877 32.72 138.729 32.7685 138.539 32.7977C138.35 32.822 138.195 32.8341 138.073 32.8341C137.602 32.8341 137.233 32.7224 136.966 32.4989C136.698 32.2706 136.567 31.9087 136.572 31.4132C136.081 31.4521 135.727 31.5614 135.508 31.7411C135.29 31.9209 135.154 32.2633 135.1 32.7685C135.081 32.958 135.069 33.1474 135.064 33.3369C135.064 33.5263 135.064 33.7158 135.064 33.9052L132.273 34.816C131.85 34.9569 131.406 35.0273 130.94 35.0273C130.396 35.0273 129.934 34.8719 129.555 34.561C129.176 34.2501 128.987 33.8081 128.987 33.2349C128.987 32.7637 129.094 32.3241 129.307 31.916C129.526 31.508 129.805 31.1242 130.145 30.7647C130.49 30.4004 130.855 30.0531 131.238 29.7228C131.627 29.3925 131.991 29.0719 132.331 28.761C132.676 28.4501 132.956 28.1416 133.169 27.8356C133.388 27.5295 133.497 27.2211 133.497 26.9102C133.497 26.8373 133.483 26.7645 133.453 26.6916C133.429 26.6139 133.368 26.5726 133.271 26.5677V26.2981L134.896 26.014C135.013 25.9945 135.149 25.9848 135.304 25.9848C135.518 25.9848 135.644 26.065 135.683 26.2253C135.727 26.3807 135.749 26.5434 135.749 26.7135C135.749 27.1021 135.644 27.4664 135.435 27.8064C135.227 28.1416 134.954 28.4671 134.619 28.7828C134.289 29.0937 133.939 29.407 133.57 29.7228C133.201 30.0337 132.849 30.3591 132.514 30.6992C132.183 31.0343 131.914 31.3962 131.705 31.7849C131.496 32.1735 131.391 32.6034 131.391 33.0746C131.391 33.5312 131.523 33.8105 131.785 33.9125C132.052 34.0097 132.409 34.0582 132.856 34.0582C132.89 33.3539 133.05 32.7953 133.337 32.3823C133.624 31.9646 134.007 31.644 134.488 31.4205C134.974 31.1971 135.53 31.0246 136.157 30.9032C136.55 30.8255 136.949 30.7623 137.352 30.7137C137.755 30.6652 138.156 30.6214 138.554 30.5826C138.554 30.9372 138.576 31.2942 138.62 31.6537C138.668 32.0083 138.79 32.3411 138.984 32.6519ZM150.001 30.2037C149.885 30.3106 149.736 30.3956 149.557 30.4587C149.382 30.5219 149.217 30.5534 149.061 30.5534C148.517 30.5534 148.145 30.4053 147.946 30.109C147.752 29.8078 147.669 29.4289 147.699 28.9723L146.227 29.0743L145.702 32.6738C145.683 32.8195 145.658 32.9823 145.629 33.162C145.605 33.3369 145.593 33.4972 145.593 33.6429C145.593 33.8081 145.619 33.9708 145.673 34.1311C145.726 34.2866 145.836 34.4007 146.001 34.4736V34.714L144.638 34.9691C144.561 34.9836 144.485 34.9982 144.412 35.0128C144.339 35.0225 144.262 35.0273 144.179 35.0273C143.897 35.0273 143.718 34.9496 143.64 34.7942C143.562 34.6387 143.523 34.4371 143.523 34.1894C143.523 34.0777 143.533 33.9417 143.553 33.7814C143.572 33.6162 143.589 33.4802 143.604 33.3733L144.194 29.2346L142.583 29.3585C142.583 29.6936 142.506 30.0094 142.35 30.3057C142.195 30.602 141.981 30.8425 141.709 31.0271C141.442 31.2068 141.131 31.2967 140.776 31.2967C140.684 31.2967 140.572 31.2821 140.441 31.2529C140.31 31.2238 140.208 31.1728 140.135 31.0999C140.276 30.9591 140.376 30.7623 140.434 30.5097C140.492 30.2523 140.521 30.0312 140.521 29.8467C140.521 29.7106 140.519 29.5698 140.514 29.424C140.509 29.2734 140.487 29.1326 140.449 29.0014L144.267 28.7172C144.296 28.5132 144.33 28.2728 144.369 27.9959C144.412 27.719 144.449 27.4567 144.478 27.2089C144.507 26.9612 144.522 26.7815 144.522 26.6697C144.522 26.4997 144.483 26.3273 144.405 26.1524C144.332 25.9775 144.206 25.8609 144.026 25.8027V25.6861C144.235 25.6715 144.466 25.6569 144.718 25.6424C144.971 25.6229 145.207 25.6083 145.425 25.5986C145.644 25.5889 145.804 25.5841 145.906 25.5841C146.159 25.5841 146.336 25.6424 146.438 25.7589C146.545 25.8755 146.598 26.0553 146.598 26.2981C146.598 26.3953 146.579 26.5872 146.54 26.8738C146.501 27.1555 146.457 27.4543 146.409 27.77C146.365 28.0858 146.329 28.3456 146.3 28.5497L149.775 28.2946C149.736 28.4161 149.71 28.5521 149.695 28.7027C149.68 28.8533 149.673 28.9917 149.673 29.118C149.673 29.2054 149.68 29.3269 149.695 29.4823C149.714 29.6329 149.748 29.7786 149.797 29.9195C149.846 30.0555 149.914 30.1503 150.001 30.2037ZM159.947 25.6278C159.85 25.7201 159.704 25.7929 159.51 25.8464C159.321 25.8949 159.124 25.9314 158.92 25.9557C158.721 25.9751 158.555 25.9848 158.424 25.9848C158.152 25.9848 157.9 25.946 157.666 25.8682C157.433 25.7857 157.268 25.6011 157.171 25.3145H156.318L156.107 26.7426C156.394 26.7863 156.683 26.8373 156.974 26.8956C157.271 26.9539 157.564 26.9831 157.856 26.9831C158.07 26.9831 158.283 26.9806 158.497 26.9758C158.711 26.9709 158.922 26.9588 159.131 26.9393C159.014 27.0559 158.944 27.2065 158.92 27.3911C158.895 27.5708 158.883 27.7384 158.883 27.8939C158.883 28.0347 158.91 28.2145 158.963 28.4331C159.017 28.6517 159.116 28.7998 159.262 28.8775C159.218 28.9747 159.129 29.0524 158.993 29.1107C158.861 29.1642 158.721 29.2006 158.57 29.22C158.424 29.2394 158.305 29.2492 158.213 29.2492C157.683 29.2492 157.275 29.067 156.989 28.7027C156.707 28.3383 156.593 27.9036 156.646 27.3984C156.389 27.345 156.122 27.2964 155.845 27.2527C155.573 27.2041 155.303 27.1798 155.036 27.1798C154.346 27.1798 153.853 27.396 153.557 27.8283C153.265 28.2606 153.12 28.7925 153.12 29.424C153.12 29.6912 153.137 29.9365 153.171 30.16C153.579 30.16 153.987 30.1308 154.395 30.0725C154.803 30.0142 155.211 29.9851 155.619 29.9851C155.881 29.9851 156.093 30.041 156.253 30.1527C156.418 30.2596 156.501 30.4563 156.501 30.7429C156.501 30.8643 156.486 30.9906 156.457 31.1218C156.433 31.2529 156.408 31.3768 156.384 31.4934C156.263 32.0909 156.165 32.5621 156.093 32.907C156.025 33.2519 155.976 33.5093 155.947 33.6793C155.918 33.8494 155.903 33.9708 155.903 34.0437C155.903 34.1505 155.935 34.2331 155.998 34.2914C156.061 34.3448 156.139 34.391 156.231 34.4299V34.6412L154.635 35.0128C154.592 35.0225 154.543 35.0273 154.49 35.0273C154.436 35.0322 154.385 35.0346 154.337 35.0346C154.103 35.0346 153.936 34.9861 153.834 34.8889C153.732 34.7869 153.681 34.6193 153.681 34.3861C153.681 34.2987 153.693 34.1773 153.717 34.0218C153.741 33.8664 153.795 33.6016 153.878 33.2276C153.965 32.8535 154.101 32.2973 154.286 31.559C154.363 31.2481 154.424 30.9469 154.468 30.6555C154.099 30.6555 153.732 30.6895 153.367 30.7575C153.003 30.8206 152.639 30.8522 152.274 30.8522C151.876 30.8522 151.565 30.7405 151.342 30.517C151.118 30.2887 151.007 29.9754 151.007 29.5771C151.007 29.0087 151.162 28.5181 151.473 28.1052C151.789 27.6923 152.187 27.3644 152.668 27.1215C153.154 26.8786 153.654 26.7329 154.169 26.6843L154.351 25.3145H153.455C153.236 25.7274 152.962 25.9921 152.632 26.1087C152.306 26.2253 151.92 26.2836 151.473 26.2836C151.322 26.2836 151.172 26.2787 151.021 26.269C150.871 26.2544 150.722 26.2301 150.577 26.1961C150.708 26.0747 150.822 25.9144 150.919 25.7152C151.016 25.5161 151.065 25.3266 151.065 25.1469C151.065 24.9428 151.041 24.7607 150.992 24.6004C150.948 24.4401 150.858 24.2798 150.722 24.1195C150.946 24.066 151.147 24.015 151.327 23.9665C151.512 23.9179 151.723 23.8936 151.961 23.8936C152.141 23.8936 152.342 23.9155 152.566 23.9592C152.789 23.998 152.989 24.0733 153.163 24.1851C153.343 24.2968 153.445 24.4644 153.469 24.6878H157.156C157.336 24.2701 157.577 24.0175 157.878 23.93C158.179 23.8377 158.536 23.7916 158.949 23.7916C159.075 23.7916 159.209 23.811 159.35 23.8499C159.495 23.8839 159.629 23.9179 159.75 23.9519C159.697 24.0442 159.658 24.1778 159.634 24.3526C159.614 24.5275 159.605 24.6708 159.605 24.7825C159.605 24.9428 159.627 25.0983 159.67 25.2489C159.719 25.3995 159.811 25.5258 159.947 25.6278Z" fill="white"/>
</svg>
