<svg width="127" height="285" viewBox="0 0 127 285" fill="none" xmlns="http://www.w3.org/2000/svg">
<g clip-path="url(#clip0_30793_10294)">
<path opacity="0.03" d="M233 0H72.3077L0 72.3641V285H233V0ZM207.111 25.9091V259.091H25.8889V83.0905L83.0257 25.9091H207.111ZM116.5 103.636C121.65 103.636 126.588 105.684 130.23 109.328C133.871 112.972 135.917 117.915 135.917 123.068C135.917 128.222 133.871 133.164 130.23 136.809C126.588 140.453 121.65 142.5 116.5 142.5C111.35 142.5 106.412 140.453 102.77 136.809C99.129 133.164 97.0833 128.222 97.0833 123.068C97.0833 117.915 99.129 112.972 102.77 109.328C106.412 105.684 111.35 103.636 116.5 103.636ZM161.806 123.068C161.806 117.114 160.634 111.218 158.357 105.717C156.08 100.216 152.743 95.2176 148.536 91.0073C144.329 86.797 139.334 83.4572 133.838 81.1786C128.341 78.9 122.45 77.7273 116.5 77.7273C110.55 77.7273 104.659 78.9 99.1623 81.1786C93.6656 83.4572 88.6711 86.797 84.4641 91.0073C80.2571 95.2176 76.9199 100.216 74.6431 105.717C72.3663 111.218 71.1944 117.114 71.1944 123.068C71.1944 135.093 75.9677 146.626 84.4641 155.129C92.9606 163.632 104.484 168.409 116.5 168.409C128.516 168.409 140.039 163.632 148.536 155.129C157.032 146.626 161.806 135.093 161.806 123.068ZM194.167 233.182C194.167 219.439 188.712 206.259 179.001 196.541C169.291 186.823 156.121 181.364 142.389 181.364H90.6111C76.8788 181.364 63.7089 186.823 53.9987 196.541C44.2885 206.259 38.8333 219.439 38.8333 233.182V246.136H64.7222V233.182C64.7222 226.31 67.4498 219.72 72.3049 214.861C77.16 210.002 83.7449 207.273 90.6111 207.273H142.389C149.255 207.273 155.84 210.002 160.695 214.861C165.55 219.72 168.278 226.31 168.278 233.182V246.136H194.167V233.182Z" fill="#005656"/>
</g>
<defs>
<clipPath id="clip0_30793_10294">
<rect width="127" height="285" fill="white"/>
</clipPath>
</defs>
</svg>
